<?xml version="1.0" encoding="utf-8"?>
<!-- Generator: Adobe Illustrator 25.0.0, SVG Export Plug-In . SVG Version: 6.00 Build 0)  -->
<svg version="1.1" id="Layer_1" xmlns="http://www.w3.org/2000/svg" xmlns:xlink="http://www.w3.org/1999/xlink" x="0px" y="0px"
	 viewBox="0 0 50 36.2" style="enable-background:new 0 0 50 36.2;" xml:space="preserve">
<style type="text/css">
	.st0{fill:#5B8C51;}
</style>
<g>
	<path class="st0" d="M22.6,34.5c-1.7-6.5,1.9-13.7,7.8-16.9c5.9-2.9,12.3-2.8,18.7-3.6c0,0,0.7-0.1,0.7-0.1l0.1,0.9
		C51.6,31.6,37.7,40.1,22.6,34.5L22.6,34.5z M22.9,34.3c14.1,0.4,24.2-4.1,25.4-19.4c0,0,0.8,0.8,0.8,0.8C37.1,14,24.3,22,22.9,34.3
		L22.9,34.3z"/>
	<path class="st0" d="M20.5,27.4C14,29.1,6.8,25.5,3.7,19.6C0.8,13.7,0.9,7.3,0.1,1C0.1,1,0,0.2,0,0.2l0.9-0.1
		C17.6-1.6,26.1,12.3,20.5,27.4L20.5,27.4z M20.3,27.1C20.7,13.1,16.2,3,0.9,1.8c0,0,0.8-0.8,0.8-0.8C0.1,12.9,8,25.7,20.3,27.1
		L20.3,27.1z"/>
</g>
</svg>
