<?xml version="1.0" encoding="utf-8"?>
<!-- Generator: Adobe Illustrator 27.9.0, SVG Export Plug-In . SVG Version: 6.00 Build 0)  -->
<svg version="1.1" id="Layer_1" xmlns="http://www.w3.org/2000/svg" xmlns:xlink="http://www.w3.org/1999/xlink" x="0px" y="0px"
	 viewBox="0 0 373.1 61.9" style="enable-background:new 0 0 373.1 61.9;" xml:space="preserve">
<g>
	<path d="M27,16.3c1.2,0,2.1,0.3,2.9,0.8c0.8,0.5,1.2,1.4,1.2,2.7c0,0.6-0.2,1.5-0.5,2.8c-0.3,1.3-0.8,2.8-1.3,4.5
		c-0.6,1.7-1.2,3.5-1.9,5.5c-0.7,2-1.4,3.9-2.2,5.8c-0.8,1.9-1.5,3.7-2.3,5.4c-0.8,1.7-1.4,3.1-2.1,4.3c-0.4,0.4-1.1,0.6-2,0.9
		c-0.9,0.2-1.9,0.3-2.9,0.3c-1.3,0-2.4-0.2-3.3-0.5c-0.9-0.3-1.6-0.9-2-1.6c-0.4-0.8-0.9-1.8-1.5-3.1c-0.6-1.3-1.2-2.8-1.9-4.5
		c-0.7-1.7-1.4-3.5-2.1-5.4c-0.7-1.9-1.4-3.8-2-5.6c-0.6-1.9-1.2-3.7-1.8-5.4c-0.6-1.7-1-3.3-1.4-4.7c0.4-0.5,1.1-1,1.9-1.4
		c0.8-0.4,1.7-0.6,2.6-0.6c1.2,0,2.1,0.3,2.8,0.8C8,17.6,8.6,18.6,9,19.9l3.3,11c0.3,0.9,0.6,1.8,0.9,2.8c0.3,1,0.7,2,1,2.9
		c0.3,1,0.6,1.9,0.9,2.7c0.3,0.9,0.5,1.6,0.7,2.2h0.3c1.3-3.9,2.6-8,3.8-12.1c1.2-4.2,2.3-8.3,3.3-12.3c0.5-0.3,1.1-0.5,1.8-0.7
		C25.7,16.3,26.4,16.3,27,16.3z"/>
	<path d="M37,7.5c0-1.3,0.5-2.4,1.4-3.3c0.9-0.9,2.1-1.4,3.5-1.4c1.4,0,2.6,0.5,3.5,1.4c0.9,0.9,1.3,2,1.3,3.3
		c0,1.3-0.4,2.5-1.3,3.4c-0.9,0.9-2,1.4-3.5,1.4c-1.4,0-2.6-0.5-3.5-1.4C37.4,10,37,8.8,37,7.5z M37.6,17.2c0.4-0.1,0.9-0.2,1.6-0.3
		c0.7-0.1,1.4-0.2,2.2-0.2c1.6,0,2.8,0.3,3.5,0.9c0.7,0.6,1.1,1.6,1.1,3.1v27.9c-0.4,0.1-0.9,0.2-1.6,0.3C43.8,49,43.1,49,42.3,49
		c-1.6,0-2.8-0.3-3.5-0.9c-0.7-0.6-1.1-1.6-1.1-3.1V17.2z"/>
	<path d="M61.7,36.6c0.6,2.3,1.8,3.9,3.5,4.9c1.7,1,3.8,1.5,6.3,1.5c1.9,0,3.6-0.3,5.2-0.8c1.6-0.6,2.9-1.1,3.8-1.8
		c0.6,0.4,1.1,0.8,1.5,1.5c0.4,0.6,0.6,1.3,0.6,2c0,0.9-0.3,1.7-0.9,2.4c-0.6,0.7-1.4,1.3-2.5,1.8c-1,0.5-2.3,0.9-3.7,1.1
		c-1.4,0.3-3,0.4-4.6,0.4c-2.6,0-5-0.4-7.2-1.1c-2.2-0.7-4-1.8-5.5-3.2c-1.5-1.4-2.7-3.2-3.6-5.4c-0.9-2.1-1.3-4.6-1.3-7.5
		c0-2.8,0.4-5.2,1.3-7.2c0.8-2,2-3.8,3.4-5.1c1.4-1.4,3.1-2.4,5-3.1c1.9-0.7,3.9-1,6.1-1c2.2,0,4.2,0.3,6,1c1.8,0.7,3.4,1.6,4.7,2.9
		c1.3,1.2,2.3,2.7,3,4.4c0.7,1.7,1.1,3.6,1.1,5.6c0,1.2-0.3,2.2-1,2.8c-0.6,0.6-1.5,1-2.7,1.2L61.7,36.6z M69.1,22.3
		c-2.2,0-4,0.7-5.5,2.2c-1.5,1.4-2.3,3.5-2.5,6.2L76,28.5c-0.2-1.6-0.8-3.1-1.9-4.3C72.9,22.9,71.3,22.3,69.1,22.3z"/>
	<path d="M100.2,41.8c0.9,0.6,2.1,0.9,3.6,0.9c0.8,0,1.5-0.1,2.3-0.3c0.8-0.2,1.5-0.4,2.1-0.7c0.4,0.4,0.7,0.8,0.9,1.3
		c0.2,0.5,0.4,1.1,0.4,1.8c0,1.3-0.6,2.4-1.8,3.3c-1.2,0.9-3.1,1.3-5.8,1.3c-3.5,0-6.3-0.8-8.3-2.4c-2-1.6-3-4.2-3-7.8V8.6
		c0.4-0.1,0.9-0.2,1.6-0.3c0.7-0.1,1.4-0.2,2.2-0.2c1.6,0,2.7,0.3,3.4,0.9c0.7,0.6,1.1,1.6,1.1,3.1v5.5h9.8c0.2,0.4,0.4,0.8,0.6,1.4
		c0.2,0.6,0.3,1.2,0.3,1.9c0,1.2-0.3,2-0.8,2.5c-0.5,0.5-1.2,0.8-2.1,0.8h-7.7v14.6C98.9,40.2,99.4,41.2,100.2,41.8z"/>
	<path d="M123.3,48.8c-0.7,0.1-1.4,0.2-2.2,0.2c-1.6,0-2.8-0.3-3.5-0.9c-0.7-0.6-1.1-1.6-1.1-3.1V5.2c0.4-0.1,0.9-0.3,1.6-0.4
		c0.7-0.1,1.4-0.2,2.2-0.2c1.6,0,2.8,0.3,3.5,0.9c0.7,0.6,1.1,1.6,1.1,3.1v39.9C124.5,48.6,124,48.7,123.3,48.8z"/>
	<path d="M164.9,32.7c0,2.6-0.4,4.9-1.2,7c-0.8,2.1-1.9,3.8-3.3,5.3c-1.4,1.5-3.1,2.6-5.1,3.4c-2,0.8-4.2,1.2-6.7,1.2
		c-2.5,0-4.7-0.4-6.7-1.2c-2-0.8-3.7-1.9-5.1-3.3c-1.4-1.4-2.5-3.2-3.3-5.3c-0.8-2.1-1.2-4.4-1.2-7c0-2.6,0.4-4.9,1.2-7
		c0.8-2.1,1.9-3.8,3.3-5.3c1.4-1.4,3.2-2.6,5.2-3.3c2-0.8,4.2-1.2,6.7-1.2c2.4,0,4.7,0.4,6.7,1.2c2,0.8,3.7,1.9,5.2,3.4
		c1.4,1.5,2.6,3.2,3.3,5.3C164.6,27.9,164.9,30.2,164.9,32.7z M148.6,22.7c-2.4,0-4.3,0.9-5.7,2.6c-1.4,1.8-2.1,4.2-2.1,7.4
		c0,3.2,0.7,5.7,2,7.5c1.4,1.7,3.3,2.6,5.7,2.6c2.4,0,4.3-0.9,5.7-2.6c1.4-1.8,2-4.2,2-7.4s-0.7-5.7-2.1-7.4
		C152.9,23.5,151,22.7,148.6,22.7z"/>
	<path d="M191.1,24c-1.1-0.9-2.6-1.3-4.4-1.3c-1.3,0-2.5,0.2-3.6,0.5c-1.1,0.3-2,0.7-2.8,1.2v24.2c-0.4,0.1-0.9,0.2-1.6,0.3
		c-0.7,0.1-1.4,0.2-2.3,0.2c-1.6,0-2.7-0.3-3.5-0.9c-0.8-0.6-1.1-1.6-1.1-3.1V23.7c0-1.1,0.2-1.9,0.7-2.6c0.4-0.7,1.1-1.3,2.1-1.9
		c1.3-0.9,3-1.6,5.1-2.2c2.1-0.6,4.5-0.9,7.1-0.9c4.6,0,8.1,1,10.6,3c2.5,2,3.8,5,3.8,8.9v20.6c-0.4,0.1-0.9,0.2-1.6,0.3
		c-0.7,0.1-1.4,0.2-2.2,0.2c-1.6,0-2.8-0.3-3.5-0.9c-0.7-0.6-1.1-1.6-1.1-3.1V28.2C192.8,26.3,192.2,24.9,191.1,24z"/>
	<path d="M230,45.8c-0.9,0.4-1.9,0.8-3.1,1.1c-1.2,0.3-2.5,0.5-4.1,0.5c-2,0-3.9-0.3-5.7-0.8c-1.8-0.6-3.3-1.5-4.7-2.7
		c-1.3-1.2-2.4-2.9-3.2-4.8c-0.8-2-1.2-4.4-1.2-7.2c0-2.6,0.4-4.9,1.2-6.8c0.8-2,1.9-3.6,3.3-5c1.4-1.3,3.2-2.3,5.2-3
		c2-0.7,4.2-1,6.7-1c2.3,0,4.4,0.3,6.4,0.9c1.9,0.6,3.5,1.2,4.6,2c0.8,0.5,1.4,1.1,1.9,1.8c0.5,0.7,0.7,1.5,0.7,2.5V49
		c0,2.3-0.4,4.2-1.2,5.9c-0.8,1.6-1.9,3-3.4,4c-1.4,1-3.1,1.8-5,2.3c-1.9,0.5-4,0.7-6.2,0.7c-2.3,0-4.3-0.2-6-0.6
		c-1.7-0.4-3-0.9-3.8-1.4c-1.5-0.9-2.2-2.2-2.2-3.7c0-0.8,0.2-1.6,0.5-2.2c0.4-0.6,0.8-1.1,1.3-1.4c1.2,0.7,2.6,1.3,4.2,1.9
		c1.6,0.5,3.4,0.8,5.3,0.8c2.7,0,4.8-0.5,6.3-1.5c1.5-1,2.3-2.7,2.3-4.9V45.8z M224.2,40.9c1.3,0,2.4-0.2,3.3-0.5
		c0.9-0.4,1.7-0.8,2.4-1.3V24c-0.6-0.4-1.3-0.7-2.2-0.9s-1.8-0.4-3-0.4c-2.4,0-4.4,0.7-5.9,2.2c-1.5,1.5-2.2,3.8-2.2,6.9
		c0,1.7,0.2,3.1,0.6,4.3c0.4,1.2,0.9,2.1,1.6,2.8c0.7,0.7,1.5,1.2,2.4,1.5C222.2,40.7,223.2,40.9,224.2,40.9z"/>
	<path d="M254.7,19.1h12.1c0.2,0.4,0.4,0.8,0.6,1.4c0.2,0.6,0.3,1.2,0.3,1.8c0,1.2-0.3,2-0.8,2.5s-1.2,0.8-2.1,0.8h-9.6v22.9
		c-0.4,0.1-0.9,0.2-1.6,0.3c-0.7,0.1-1.4,0.2-2.3,0.2c-1.6,0-2.7-0.3-3.5-0.9c-0.8-0.6-1.1-1.6-1.1-3.1V15.6c0-2.1,0.3-4,1-5.5
		c0.7-1.5,1.6-2.8,2.8-3.7c1.2-1,2.6-1.7,4.3-2.2c1.6-0.5,3.4-0.7,5.4-0.7c5.9,0,8.9,1.6,8.9,4.7c0,0.7-0.1,1.3-0.4,1.9
		c-0.3,0.6-0.6,1-1,1.4c-0.8-0.4-1.8-0.6-2.8-0.9c-1-0.2-2.1-0.3-3.3-0.3c-2.3,0-4,0.4-5.1,1.3c-1.1,0.9-1.6,2.3-1.6,4.3V19.1z"/>
	<path d="M280.7,48.5c-0.4,0.1-0.9,0.2-1.6,0.3c-0.7,0.1-1.4,0.2-2.3,0.2c-1.6,0-2.7-0.3-3.5-0.9c-0.8-0.6-1.1-1.6-1.1-3.1V23.9
		c0-1.2,0.3-2.1,0.8-2.9c0.5-0.8,1.3-1.5,2.3-2.1c1.4-0.8,3.1-1.5,5.1-2.1c2-0.5,4.2-0.8,6.6-0.8c4.2,0,6.3,1.3,6.3,3.9
		c0,0.6-0.1,1.2-0.3,1.8c-0.2,0.6-0.4,1-0.6,1.4c-1-0.2-2.3-0.3-3.8-0.3c-1.6,0-3,0.2-4.4,0.5c-1.4,0.4-2.6,0.8-3.5,1.3V48.5z"/>
	<path d="M327.6,44.9c-0.4,0.7-1,1.3-1.9,1.8c-1.3,0.8-2.9,1.5-4.9,2s-4.2,0.8-6.8,0.8c-2.3,0-4.4-0.3-6.3-0.8
		c-1.9-0.5-3.5-1.3-4.8-2.4c-1.3-1.1-2.4-2.4-3.1-4.1c-0.7-1.6-1.1-3.6-1.1-5.9V17.1c0.4-0.1,0.9-0.3,1.6-0.4
		c0.7-0.1,1.5-0.2,2.3-0.2c1.6,0,2.7,0.3,3.5,0.8c0.8,0.6,1.1,1.6,1.1,3.1v15.9c0,2.3,0.6,4,1.8,5c1.2,1,2.9,1.5,5,1.5
		c1.4,0,2.5-0.1,3.5-0.4s1.7-0.6,2.2-0.9V17.1c0.4-0.1,0.9-0.3,1.6-0.4c0.7-0.1,1.4-0.2,2.2-0.2c1.6,0,2.8,0.3,3.5,0.8
		c0.7,0.6,1.1,1.6,1.1,3.1v21.9C328.1,43.4,327.9,44.2,327.6,44.9z"/>
	<path d="M336.2,7.5c0-1.3,0.5-2.4,1.4-3.3c0.9-0.9,2.1-1.4,3.5-1.4c1.4,0,2.6,0.5,3.5,1.4c0.9,0.9,1.3,2,1.3,3.3
		c0,1.3-0.4,2.5-1.3,3.4c-0.9,0.9-2,1.4-3.5,1.4c-1.4,0-2.6-0.5-3.5-1.4C336.6,10,336.2,8.8,336.2,7.5z M336.8,17.2
		c0.4-0.1,0.9-0.2,1.6-0.3c0.7-0.1,1.4-0.2,2.2-0.2c1.6,0,2.8,0.3,3.5,0.9c0.7,0.6,1.1,1.6,1.1,3.1v27.9c-0.4,0.1-0.9,0.2-1.6,0.3
		c-0.7,0.1-1.4,0.2-2.2,0.2c-1.6,0-2.8-0.3-3.5-0.9c-0.7-0.6-1.1-1.6-1.1-3.1V17.2z"/>
	<path d="M363.8,41.8c0.9,0.6,2.1,0.9,3.6,0.9c0.8,0,1.5-0.1,2.3-0.3c0.8-0.2,1.5-0.4,2.1-0.7c0.4,0.4,0.7,0.8,0.9,1.3
		c0.2,0.5,0.4,1.1,0.4,1.8c0,1.3-0.6,2.4-1.8,3.3c-1.2,0.9-3.1,1.3-5.8,1.3c-3.5,0-6.3-0.8-8.3-2.4c-2-1.6-3-4.2-3-7.8V8.6
		c0.4-0.1,0.9-0.2,1.6-0.3c0.7-0.1,1.4-0.2,2.2-0.2c1.6,0,2.7,0.3,3.4,0.9c0.7,0.6,1.1,1.6,1.1,3.1v5.5h9.8c0.2,0.4,0.4,0.8,0.6,1.4
		c0.2,0.6,0.3,1.2,0.3,1.9c0,1.2-0.3,2-0.8,2.5c-0.5,0.5-1.2,0.8-2.1,0.8h-7.7v14.6C362.5,40.2,362.9,41.2,363.8,41.8z"/>
	<path d="M156.4,15.7c0,0-1-9.3,12.3-9.2C168.7,14,163.7,17,156.4,15.7z"/>
	<path d="M155.3,12.3c0,0-9.3,1-9.2-12.3C153.6,0,156.6,5,155.3,12.3z"/>
</g>
</svg>
