<?xml version="1.0" encoding="utf-8"?>
<!-- Generator: Adobe Illustrator 25.0.0, SVG Export Plug-In . SVG Version: 6.00 Build 0)  -->
<svg version="1.1" id="Layer_1" xmlns="http://www.w3.org/2000/svg" xmlns:xlink="http://www.w3.org/1999/xlink" x="0px" y="0px"
	 viewBox="0 0 49.7 49.8" style="enable-background:new 0 0 49.7 49.8;" xml:space="preserve">
<style type="text/css">
	.st0{fill:#5B8C51;}
</style>
<g>
	<path class="st0" d="M38.1,49.8c-2.8-0.3-5.2-1-7.5-2c-4.8-2-9.1-4.8-13-8.2c-5.4-4.6-10-9.9-13.5-16.1c-1.8-3.3-3.2-6.7-3.9-10.4
		C-0.1,12,0,11,0.7,10.1c2.3-3.2,4.7-6.3,7.6-9c0.3-0.3,0.7-0.5,1-0.8c0.7-0.5,1.2-0.4,1.9,0.1c0.3,0.3,0.6,0.5,0.8,0.9
		c2.3,3.2,4.4,6.5,6.1,10.1c0.9,1.9,0.8,2.2-0.7,3.6c-1.1,1-2.2,1.9-3.2,2.9c-0.3,0.2-0.3,0.4-0.2,0.8c1.5,5,4.2,9,8.2,12.4
		c2.7,2.3,5.7,4,9,4.9c0.4,0.1,0.7,0,0.9-0.3c0.9-1,1.7-2,2.6-3c1.6-1.8,1.9-1.9,4-0.9c3.4,1.7,6.6,3.7,9.7,5.9
		c1.8,1.3,1.9,2,0.4,3.6c-2.8,3.1-6,5.7-9.5,8C38.8,49.6,38.3,49.7,38.1,49.8z"/>
	<path class="st0" d="M49.7,23.1c-1.2,0-2.3,0-3.5,0c-0.1-5.3-2-10-5.7-13.8C36.7,5.5,32,3.7,26.6,3.5c0-1.2,0-2.3,0-3.5
		C38-0.3,49.7,9.4,49.7,23.1z"/>
	<path class="st0" d="M40.8,23.1c-1.2,0-2.3,0-3.5,0c-0.1-5.8-4.7-10.5-10.7-10.7c0-1.2,0-2.3,0-3.5C34,8.7,40.9,15.1,40.8,23.1z"/>
</g>
</svg>
