<?xml version="1.0" encoding="utf-8"?>
<!-- Generator: Adobe Illustrator 25.0.0, SVG Export Plug-In . SVG Version: 6.00 Build 0)  -->
<svg version="1.1" id="Layer_1" xmlns="http://www.w3.org/2000/svg" xmlns:xlink="http://www.w3.org/1999/xlink" x="0px" y="0px"
	 viewBox="0 0 70.8 49.8" style="enable-background:new 0 0 70.8 49.8;" xml:space="preserve">
<style type="text/css">
	.st0{fill:#5B8C51;}
</style>
<g>
	<path class="st0" d="M70.8,44.4c-0.2,0.6-0.4,1.2-0.6,1.8C63.1,39.1,56,32,48.8,25C56,17.9,63.1,10.8,70.3,3.7
		c0.1,0.5,0.3,1.1,0.5,1.7C70.8,18.4,70.8,31.4,70.8,44.4z"/>
	<path class="st0" d="M67.2,0.6c-1.1,1-2.1,2-3.1,3c-8.9,9-17.9,17.9-26.8,26.9c-1.3,1.3-2.6,1.3-3.9,0C23.7,20.7,13.9,10.9,4.1,1.1
		C4,1,3.9,0.8,3.6,0.5C4.4,0.3,5.1,0.2,5.8,0C6.1,0,6.4,0,6.6,0C25.8,0,45,0,64.2,0C65.2,0,66.2,0.1,67.2,0.6z"/>
	<path class="st0" d="M45.8,28c7.1,7.1,14.2,14.1,21.5,21.3c-0.9,0.2-1.5,0.4-2.2,0.5c-0.3,0.1-0.6,0-0.9,0c-19.1,0-38.3,0-57.4,0
		c-1,0-2-0.1-3-0.6C10.8,42.1,18,35.1,25.1,28c1.8,1.8,3.7,3.7,5.6,5.6c2.1,2.1,5,2.6,7.6,1.3c0.7-0.4,1.4-0.9,2-1.5
		c1.7-1.7,3.4-3.4,5.1-5.1C45.5,28.2,45.7,28.1,45.8,28z"/>
	<path class="st0" d="M0.6,3.7C7.7,10.7,14.8,17.8,22,24.8C14.8,31.9,7.7,39,0.6,46C0.2,45.3,0,44.4,0,43.4c0-6.5,0-13,0-19.6
		C0,18,0,12.2,0,6.4C0,5.4,0.2,4.5,0.6,3.7z"/>
</g>
</svg>
