<?xml version="1.0" encoding="utf-8"?>
<!-- Generator: Adobe Illustrator 25.0.0, SVG Export Plug-In . SVG Version: 6.00 Build 0)  -->
<svg version="1.1" id="Layer_1" xmlns="http://www.w3.org/2000/svg" xmlns:xlink="http://www.w3.org/1999/xlink" x="0px" y="0px"
	 viewBox="0 0 36.1 49.8" style="enable-background:new 0 0 36.1 49.8;" xml:space="preserve">
<style type="text/css">
	.st0{fill:#5B8C51;}
</style>
<path class="st0" d="M17.6,49.8c-0.4-0.3-0.9-0.6-1.2-1c-4.2-4.8-8-9.9-11.2-15.5c-1.9-3.2-3.5-6.5-4.5-10.1C-0.7,17.7,0,12.6,3.1,8
	c3-4.4,7.2-7.1,12.5-7.8c5.2-0.7,9.9,0.6,13.9,3.9c3.6,2.9,5.7,6.7,6.4,11.3c0.6,3.6-0.1,6.9-1.3,10.2c-1.6,4.4-4,8.5-6.6,12.4
	c-2.5,3.8-5.3,7.3-8.2,10.8c-0.3,0.4-0.8,0.7-1.2,1C18.2,49.8,17.9,49.8,17.6,49.8z M18,27.1c4.9,0.1,9-4,9.1-9c0.1-5-3.9-9.1-9-9.2
	c-4.9-0.1-9.1,4-9.1,9C8.9,22.9,12.9,27,18,27.1z"/>
</svg>
