<?xml version="1.0" encoding="utf-8"?>
<!-- Generator: Adobe Illustrator 25.0.0, SVG Export Plug-In . SVG Version: 6.00 Build 0)  -->
<svg version="1.1" id="Layer_1" xmlns="http://www.w3.org/2000/svg" xmlns:xlink="http://www.w3.org/1999/xlink" x="0px" y="0px"
	 viewBox="0 0 37 49.8" style="enable-background:new 0 0 37 49.8;" xml:space="preserve">
<style type="text/css">
	.st0{fill:#5B8C51;}
</style>
<g>
	<path class="st0" d="M37,19.8c-0.2,0.9-0.3,1.8-0.5,2.7c-0.5,2.3-1.4,4.4-2.7,6.3c-1.1,1.5-2.1,3-3.2,4.6c-0.3,0.4-0.6,0.6-1,0.5
		c-0.4-0.1-0.7-0.3-0.8-0.8c0-0.3,0.1-0.6,0.3-0.9c0.9-1.4,1.9-2.7,2.8-4c6.9-9.6,2-23-9.6-25.8C13.2,0.2,3.8,6.3,2.2,15.5
		c-0.8,4.7,0.2,8.9,2.9,12.8c4.3,6.1,8.6,12.2,13,18.3c0.1,0.2,0.2,0.3,0.4,0.5c0.1-0.2,0.2-0.3,0.3-0.4c1.6-2.3,3.2-4.6,4.8-6.8
		c0.1-0.1,0.1-0.2,0.2-0.2c0.4-0.5,0.9-0.6,1.4-0.3c0.5,0.3,0.6,0.9,0.2,1.5c-0.5,0.7-1,1.5-1.6,2.2c-1,1.5-2.1,3-3.1,4.4
		c-0.1,0.1-0.2,0.2-0.3,0.4c0.2,0,0.4,0,0.6,0c4,0,8,0,12,0c0.6,0,0.9,0.3,1.1,0.7c0.1,0.4-0.1,0.8-0.5,1.1c0,0-0.1,0.1-0.1,0.1
		c-9.9,0-19.8,0-29.8,0C3.4,49.5,3,49.3,3,49c-0.2-0.6,0.4-1.1,1.1-1.1c4,0,7.9,0,11.9,0c0.2,0,0.3,0,0.6,0
		c-0.1-0.2-0.2-0.3-0.3-0.4C12,41.3,7.7,35.2,3.4,29.1C2,27.2,1,25,0.5,22.6c-0.2-0.9-0.3-1.8-0.5-2.8c0-0.9,0-1.8,0-2.6
		c0.1-0.7,0.2-1.3,0.3-2C1.5,8.1,7.2,2,14.3,0.5c1-0.2,1.9-0.3,2.9-0.5c0.8,0,1.7,0,2.5,0c0.6,0.1,1.3,0.2,1.9,0.3
		c7.2,1.2,13.2,6.9,14.8,14c0.2,1,0.3,1.9,0.5,2.9C37,18.1,37,19,37,19.8z"/>
	<path class="st0" d="M18.5,9.7c4.8,0,8.7,4,8.7,8.8c0,4.8-4,8.7-8.8,8.7c-4.8,0-8.7-4-8.7-8.8C9.7,13.6,13.7,9.7,18.5,9.7z
		 M25.3,18.5c0-3.7-3-6.8-6.8-6.8c-3.8,0-6.8,3-6.8,6.8c0,3.8,3,6.8,6.8,6.8C22.2,25.3,25.3,22.2,25.3,18.5z"/>
	<path class="st0" d="M27.2,37.5c-0.5,0-1-0.5-1-1c0-0.5,0.5-0.9,1-0.9c0.5,0,1,0.5,1,1C28.2,37.1,27.7,37.6,27.2,37.5z"/>
</g>
</svg>
